<mxfile host="Electron" modified="2024-04-17T15:19:35.879Z" agent="Mozilla/5.0 (Macintosh; Intel Mac OS X 10_15_7) AppleWebKit/537.36 (KHTML, like Gecko) draw.io/24.2.5 Chrome/120.0.6099.109 Electron/28.1.0 Safari/537.36" etag="uvkAKaZMevdyD0VFJckr" version="24.2.5" type="device">
  <diagram name="Страница — 1" id="Q0myO6EL5sRfpJXMyDVq">
    <mxGraphModel dx="984" dy="718" grid="1" gridSize="1" guides="1" tooltips="1" connect="1" arrows="1" fold="1" page="1" pageScale="1" pageWidth="1169" pageHeight="827" math="0" shadow="0">
      <root>
        <mxCell id="0" />
        <mxCell id="1" parent="0" />
        <mxCell id="LBxr6stnUnaqlczaar8l-3" value="" style="edgeStyle=orthogonalEdgeStyle;rounded=0;orthogonalLoop=1;jettySize=auto;html=1;startArrow=classic;startFill=1;exitX=1;exitY=0.25;exitDx=0;exitDy=0;exitPerimeter=0;entryX=0;entryY=0.25;entryDx=0;entryDy=0;entryPerimeter=0;strokeColor=#000000;strokeWidth=2;" parent="1" source="LBxr6stnUnaqlczaar8l-1" target="LBxr6stnUnaqlczaar8l-2" edge="1">
          <mxGeometry relative="1" as="geometry" />
        </mxCell>
        <mxCell id="LBxr6stnUnaqlczaar8l-1" value="" style="points=[[0.015,0.015,0],[0.985,0.015,0],[0.985,0.985,0],[0.015,0.985,0],[0.25,0,0],[0.5,0,0],[0.75,0,0],[1,0.25,0],[1,0.5,0],[1,0.75,0],[0.75,1,0],[0.5,1,0],[0.25,1,0],[0,0.75,0],[0,0.5,0],[0,0.25,0]];verticalLabelPosition=bottom;html=1;verticalAlign=top;aspect=fixed;align=center;pointerEvents=1;shape=mxgraph.cisco19.rect;prIcon=l2_switch;strokeColor=#005073;shadow=0;fillColor=none;" parent="1" vertex="1">
          <mxGeometry x="300" y="210" width="64" height="64" as="geometry" />
        </mxCell>
        <mxCell id="LBxr6stnUnaqlczaar8l-5" value="" style="edgeStyle=orthogonalEdgeStyle;rounded=0;orthogonalLoop=1;jettySize=auto;html=1;exitX=0.25;exitY=1;exitDx=0;exitDy=0;exitPerimeter=0;entryX=0.25;entryY=0;entryDx=0;entryDy=0;entryPerimeter=0;startArrow=classic;startFill=1;strokeWidth=2;" parent="1" source="LBxr6stnUnaqlczaar8l-2" target="LBxr6stnUnaqlczaar8l-4" edge="1">
          <mxGeometry relative="1" as="geometry" />
        </mxCell>
        <mxCell id="LBxr6stnUnaqlczaar8l-7" value="" style="edgeStyle=orthogonalEdgeStyle;rounded=0;orthogonalLoop=1;jettySize=auto;html=1;exitX=0.75;exitY=1;exitDx=0;exitDy=0;exitPerimeter=0;entryX=0.75;entryY=0;entryDx=0;entryDy=0;entryPerimeter=0;startArrow=classic;startFill=1;strokeColor=#000000;strokeWidth=2;" parent="1" source="LBxr6stnUnaqlczaar8l-2" target="LBxr6stnUnaqlczaar8l-4" edge="1">
          <mxGeometry relative="1" as="geometry">
            <mxPoint x="602" y="354" as="targetPoint" />
          </mxGeometry>
        </mxCell>
        <mxCell id="LBxr6stnUnaqlczaar8l-2" value="" style="points=[[0.015,0.015,0],[0.985,0.015,0],[0.985,0.985,0],[0.015,0.985,0],[0.25,0,0],[0.5,0,0],[0.75,0,0],[1,0.25,0],[1,0.5,0],[1,0.75,0],[0.75,1,0],[0.5,1,0],[0.25,1,0],[0,0.75,0],[0,0.5,0],[0,0.25,0]];verticalLabelPosition=bottom;html=1;verticalAlign=top;aspect=fixed;align=center;pointerEvents=1;shape=mxgraph.cisco19.rect;prIcon=l2_switch;strokeColor=#005073;shadow=0;fillColor=none;" parent="1" vertex="1">
          <mxGeometry x="570" y="210" width="64" height="64" as="geometry" />
        </mxCell>
        <mxCell id="LBxr6stnUnaqlczaar8l-9" value="" style="edgeStyle=orthogonalEdgeStyle;rounded=0;orthogonalLoop=1;jettySize=auto;html=1;exitX=0;exitY=0.25;exitDx=0;exitDy=0;exitPerimeter=0;startArrow=classic;startFill=1;entryX=0.75;entryY=1;entryDx=0;entryDy=0;entryPerimeter=0;strokeColor=#000000;strokeWidth=2;" parent="1" source="LBxr6stnUnaqlczaar8l-4" target="LBxr6stnUnaqlczaar8l-1" edge="1">
          <mxGeometry relative="1" as="geometry">
            <mxPoint x="490" y="452" as="targetPoint" />
          </mxGeometry>
        </mxCell>
        <mxCell id="LBxr6stnUnaqlczaar8l-4" value="" style="points=[[0.015,0.015,0],[0.985,0.015,0],[0.985,0.985,0],[0.015,0.985,0],[0.25,0,0],[0.5,0,0],[0.75,0,0],[1,0.25,0],[1,0.5,0],[1,0.75,0],[0.75,1,0],[0.5,1,0],[0.25,1,0],[0,0.75,0],[0,0.5,0],[0,0.25,0]];verticalLabelPosition=bottom;html=1;verticalAlign=top;aspect=fixed;align=center;pointerEvents=1;shape=mxgraph.cisco19.rect;prIcon=l2_switch;strokeColor=#005073;shadow=0;fillColor=none;" parent="1" vertex="1">
          <mxGeometry x="570" y="420" width="64" height="64" as="geometry" />
        </mxCell>
        <mxCell id="LBxr6stnUnaqlczaar8l-10" value="" style="edgeStyle=orthogonalEdgeStyle;rounded=0;orthogonalLoop=1;jettySize=auto;html=1;exitX=0;exitY=0.75;exitDx=0;exitDy=0;exitPerimeter=0;startArrow=classic;startFill=1;entryX=0.25;entryY=1;entryDx=0;entryDy=0;entryPerimeter=0;strokeColor=#000000;strokeWidth=2;" parent="1" source="LBxr6stnUnaqlczaar8l-4" target="LBxr6stnUnaqlczaar8l-1" edge="1">
          <mxGeometry relative="1" as="geometry">
            <mxPoint x="580" y="446" as="sourcePoint" />
            <mxPoint x="358" y="284" as="targetPoint" />
          </mxGeometry>
        </mxCell>
        <mxCell id="LBxr6stnUnaqlczaar8l-11" value="" style="edgeStyle=orthogonalEdgeStyle;rounded=0;orthogonalLoop=1;jettySize=auto;html=1;startArrow=classic;startFill=1;entryX=0;entryY=0.75;entryDx=0;entryDy=0;entryPerimeter=0;exitX=1;exitY=0.75;exitDx=0;exitDy=0;exitPerimeter=0;strokeWidth=2;" parent="1" source="LBxr6stnUnaqlczaar8l-1" target="LBxr6stnUnaqlczaar8l-2" edge="1">
          <mxGeometry relative="1" as="geometry">
            <mxPoint x="374" y="252" as="sourcePoint" />
            <mxPoint x="580" y="252" as="targetPoint" />
          </mxGeometry>
        </mxCell>
        <mxCell id="LBxr6stnUnaqlczaar8l-12" value="et0/0" style="text;html=1;align=center;verticalAlign=middle;resizable=0;points=[];autosize=1;strokeColor=none;fillColor=none;" parent="1" vertex="1">
          <mxGeometry x="364" y="200" width="50" height="30" as="geometry" />
        </mxCell>
        <mxCell id="LBxr6stnUnaqlczaar8l-13" value="et0/0" style="text;html=1;align=center;verticalAlign=middle;resizable=0;points=[];autosize=1;strokeColor=none;fillColor=none;" parent="1" vertex="1">
          <mxGeometry x="520" y="200" width="50" height="30" as="geometry" />
        </mxCell>
        <mxCell id="LBxr6stnUnaqlczaar8l-14" value="et0/1" style="text;html=1;align=center;verticalAlign=middle;resizable=0;points=[];autosize=1;strokeColor=none;fillColor=none;" parent="1" vertex="1">
          <mxGeometry x="520" y="235" width="50" height="30" as="geometry" />
        </mxCell>
        <mxCell id="LBxr6stnUnaqlczaar8l-15" value="et0/1" style="text;html=1;align=center;verticalAlign=middle;resizable=0;points=[];autosize=1;strokeColor=none;fillColor=none;" parent="1" vertex="1">
          <mxGeometry x="366" y="235" width="50" height="30" as="geometry" />
        </mxCell>
        <mxCell id="LBxr6stnUnaqlczaar8l-17" value="et0/2" style="text;html=1;align=center;verticalAlign=middle;resizable=0;points=[];autosize=1;strokeColor=none;fillColor=none;" parent="1" vertex="1">
          <mxGeometry x="345" y="272" width="46" height="27" as="geometry" />
        </mxCell>
        <mxCell id="LBxr6stnUnaqlczaar8l-18" value="et0/2" style="text;html=1;align=center;verticalAlign=middle;resizable=0;points=[];autosize=1;strokeColor=none;fillColor=none;" parent="1" vertex="1">
          <mxGeometry x="522" y="412" width="46" height="27" as="geometry" />
        </mxCell>
        <mxCell id="LBxr6stnUnaqlczaar8l-19" value="et0/3" style="text;html=1;align=center;verticalAlign=middle;resizable=0;points=[];autosize=1;strokeColor=none;fillColor=none;" parent="1" vertex="1">
          <mxGeometry x="273" y="272" width="46" height="27" as="geometry" />
        </mxCell>
        <mxCell id="LBxr6stnUnaqlczaar8l-20" value="et0/3" style="text;html=1;align=center;verticalAlign=middle;resizable=0;points=[];autosize=1;strokeColor=none;fillColor=none;" parent="1" vertex="1">
          <mxGeometry x="523" y="462" width="46" height="27" as="geometry" />
        </mxCell>
        <mxCell id="LBxr6stnUnaqlczaar8l-21" value="et0/3" style="text;html=1;align=center;verticalAlign=middle;resizable=0;points=[];autosize=1;strokeColor=none;fillColor=none;" parent="1" vertex="1">
          <mxGeometry x="544" y="272" width="46" height="27" as="geometry" />
        </mxCell>
        <mxCell id="LBxr6stnUnaqlczaar8l-22" value="et0/1" style="text;html=1;align=center;verticalAlign=middle;resizable=0;points=[];autosize=1;strokeColor=none;fillColor=none;" parent="1" vertex="1">
          <mxGeometry x="542" y="385" width="50" height="30" as="geometry" />
        </mxCell>
        <mxCell id="LBxr6stnUnaqlczaar8l-23" value="et0/2" style="text;html=1;align=center;verticalAlign=middle;resizable=0;points=[];autosize=1;strokeColor=none;fillColor=none;" parent="1" vertex="1">
          <mxGeometry x="614" y="272" width="46" height="27" as="geometry" />
        </mxCell>
        <mxCell id="LBxr6stnUnaqlczaar8l-24" value="et0/0" style="text;html=1;align=center;verticalAlign=middle;resizable=0;points=[];autosize=1;strokeColor=none;fillColor=none;" parent="1" vertex="1">
          <mxGeometry x="612" y="385" width="50" height="30" as="geometry" />
        </mxCell>
        <mxCell id="LBxr6stnUnaqlczaar8l-25" value="&lt;b style=&quot;font-size: 13px;&quot;&gt;&lt;font style=&quot;font-size: 13px;&quot;&gt;sw 1&lt;/font&gt;&lt;/b&gt;&lt;div style=&quot;font-size: 13px;&quot;&gt;&lt;b&gt;&lt;font style=&quot;font-size: 13px;&quot;&gt;192.168.1.1/24&lt;/font&gt;&lt;/b&gt;&lt;/div&gt;&lt;div style=&quot;&quot;&gt;&lt;font style=&quot;&quot;&gt;&lt;span style=&quot;font-size: 13px;&quot;&gt;&lt;b&gt;aabb.cc00.1000&lt;/b&gt;&lt;/span&gt;&lt;br&gt;&lt;/font&gt;&lt;/div&gt;" style="text;html=1;align=left;verticalAlign=middle;resizable=0;points=[];autosize=1;strokeColor=none;fillColor=none;" parent="1" vertex="1">
          <mxGeometry x="300" y="117" width="114" height="60" as="geometry" />
        </mxCell>
        <mxCell id="LBxr6stnUnaqlczaar8l-26" value="&lt;b style=&quot;font-size: 13px;&quot;&gt;&lt;font style=&quot;font-size: 13px;&quot;&gt;sw 2&lt;/font&gt;&lt;/b&gt;&lt;div style=&quot;font-size: 13px;&quot;&gt;&lt;b&gt;&lt;font style=&quot;font-size: 13px;&quot;&gt;192.168.1.2/24&lt;/font&gt;&lt;/b&gt;&lt;/div&gt;&lt;div style=&quot;&quot;&gt;&lt;font style=&quot;&quot;&gt;&lt;span style=&quot;font-size: 13px;&quot;&gt;&lt;b&gt;aabb.cc00.2000&lt;/b&gt;&lt;/span&gt;&lt;br&gt;&lt;/font&gt;&lt;/div&gt;" style="text;html=1;align=left;verticalAlign=middle;resizable=0;points=[];autosize=1;strokeColor=none;fillColor=none;" parent="1" vertex="1">
          <mxGeometry x="568" y="117" width="114" height="60" as="geometry" />
        </mxCell>
        <mxCell id="LBxr6stnUnaqlczaar8l-27" value="&lt;b style=&quot;font-size: 13px;&quot;&gt;&lt;font style=&quot;font-size: 13px;&quot;&gt;sw 3&lt;/font&gt;&lt;/b&gt;&lt;div style=&quot;font-size: 13px;&quot;&gt;&lt;b&gt;&lt;font style=&quot;font-size: 13px;&quot;&gt;192.168.1.3/24&lt;/font&gt;&lt;/b&gt;&lt;/div&gt;&lt;div style=&quot;&quot;&gt;&lt;font style=&quot;&quot;&gt;&lt;span style=&quot;font-size: 13px;&quot;&gt;&lt;b&gt;aabb.cc00.3000&lt;/b&gt;&lt;/span&gt;&lt;br&gt;&lt;/font&gt;&lt;/div&gt;" style="text;html=1;align=left;verticalAlign=middle;resizable=0;points=[];autosize=1;strokeColor=none;fillColor=none;" parent="1" vertex="1">
          <mxGeometry x="571" y="481" width="114" height="60" as="geometry" />
        </mxCell>
      </root>
    </mxGraphModel>
  </diagram>
</mxfile>
